<svg xmlns="http://www.w3.org/2000/svg" version="1.1" xmlns:xlink="http://www.w3.org/1999/xlink" xmlns:svgjs="http://svgjs.com/svgjs" width="1980" height="1080" preserveAspectRatio="none" viewBox="0 0 1980 1080"><g mask="url(&quot;#SvgjsMask1100&quot;)" fill="none"><rect width="1980" height="1080" x="0" y="0" fill="rgba(230, 249, 255, 1)"></rect><path d="M0,664.611C179.808,695.368,350.232,878.086,517.433,805.141C678.84,734.724,710.621,512.754,744.282,339.902C773.062,192.115,730.313,46.299,693.645,-99.731C660.547,-231.54,604.391,-348.63,541.181,-468.936C458.919,-625.505,436.262,-858.097,267.459,-910.883C99.414,-963.432,-39.168,-757.99,-206.328,-702.689C-365.382,-650.07,-578.712,-723.116,-686.863,-595.17C-795.208,-466.995,-685.931,-268.136,-713.579,-102.597C-742.176,68.624,-915.539,227.5,-851.191,388.726C-787.34,548.707,-578.799,592.547,-414.939,645.657C-280.505,689.229,-139.296,640.784,0,664.611" fill="#cef3ff"></path><path d="M1980 1861.661C2122.463 1837.818 2226.851 1728.991 2357.523 1667.437 2513.65 1593.892 2753.496 1622.944 2822.538 1464.774 2891.933 1305.795 2685.367 1153.777 2656.393 982.749 2628.541 818.3430000000001 2744.768 634.943 2657.851 492.639 2570.276 349.25800000000004 2386.152 282.19899999999996 2218.882 266.442 2063.521 251.80700000000002 1931.79 362.13599999999997 1783.347 410.26199999999994 1640.181 456.677 1468.223 437.909 1361.788 544.316 1253.769 652.307 1261.962 823.546 1222.388 971.072 1176.778 1141.103 1054.3110000000001 1310.112 1111.7240000000002 1476.529 1169.4180000000001 1643.761 1349.771 1737.3020000000001 1511.481 1809.03 1658.108 1874.068 1821.796 1888.138 1980 1861.661" fill="#feffff"></path></g><defs><mask id="SvgjsMask1100"><rect width="1980" height="1080" fill="#ffffff"></rect></mask></defs></svg>